<svg width="41" height="35" viewBox="0 0 41 35" fill="none" xmlns="http://www.w3.org/2000/svg">
<path d="M29.3838 0.531658C26.2109 1.10795 23.2049 3.88697 22.4085 6.98616C22.1002 8.17716 22.0745 10.175 22.3314 11.3532C22.7168 13.0693 23.5518 14.5164 24.9263 15.8355C26.4806 17.321 28.3818 18.1535 30.5528 18.2815C33.2119 18.4352 35.5113 17.5644 37.3739 15.7074C38.9668 14.0938 39.7761 12.4802 40.0073 10.4183C40.3156 7.61368 39.4164 5.03956 37.4381 3.08016C35.6654 1.31286 33.8927 0.544466 31.4648 0.467627C30.6941 0.442013 29.7563 0.467627 29.3838 0.531658ZM32.0429 6.61477V8.47171H33.9055H35.7682V9.36817V10.2646H33.9055H32.0429V12.1216V13.9785H31.1437H30.2445V12.1216V10.2646H28.3818H26.5192V9.36817V8.48452L28.3561 8.4461L30.1802 8.40768L30.2188 6.57635L30.2573 4.75782H31.1437H32.0429V6.61477Z" fill="#A1A1A1"/>
<path d="M19.9009 4.94983C19.8367 4.97544 18.9374 5.06509 17.9098 5.14193C16.0857 5.27 15.5076 5.32122 10.5234 5.71823C9.18745 5.82068 6.64397 6.02558 4.87124 6.16645C3.11136 6.30733 1.47994 6.4482 1.26156 6.48662C0.786261 6.56346 0.105431 7.20378 0.028356 7.63921C-0.0101816 7.8185 0.182506 10.3414 0.439423 13.2485C0.709186 16.1427 1.08172 20.3433 1.2744 22.5588C1.47994 24.9921 1.69832 26.8106 1.81393 27.1436C2.09654 27.9376 2.57183 28.1937 3.7665 28.1937H4.71709L4.62717 30.2684C4.49871 33.4444 4.5244 33.47 8.53231 33.6877C12.1548 33.8798 15.893 34.0591 19.3228 34.2128C20.9157 34.2896 23.3179 34.4049 24.6539 34.4689C33.1963 34.8915 33.2349 34.8915 33.7359 34.6866C34.3396 34.4305 34.6993 33.8542 34.8021 33.009C34.8663 32.3814 35.5086 20.4842 35.5086 19.831V19.5109L34.5837 19.8182C34.0699 19.9847 33.4918 20.1384 33.312 20.1768C32.9266 20.2665 32.9394 20.1512 32.6568 26.055C32.5669 27.9376 32.4641 29.4744 32.4127 29.4744C32.31 29.4744 29.2013 25.9013 27.6084 23.9675C27.0689 23.3016 26.5037 22.6485 26.3623 22.5204C25.9127 22.1362 25.3347 22.2387 24.3712 22.8918C23.1637 23.7242 22.727 23.8907 22.2774 23.7114C22.0847 23.6346 21.0699 22.6101 20.0293 21.4318C18.9888 20.2536 17.9869 19.1907 17.7942 19.0626C17.5501 18.8962 17.306 18.8449 16.895 18.8833C16.3683 18.9474 16.227 19.0498 15.2764 20.0103C12.9127 22.4436 7.56887 28.1041 7.53033 28.2065C7.50464 28.2705 7.42757 28.3218 7.35049 28.3218C7.27342 28.3218 7.24772 28.0144 7.29911 27.4637C7.37618 26.5545 7.4918 24.4798 7.87717 17.0008C8.1084 12.5697 8.12124 12.5185 8.4167 12.2752C8.76353 12.0062 8.46808 11.9934 16.6894 12.3776C18.7319 12.4801 20.4147 12.5441 20.4276 12.5313C20.4404 12.5185 20.3762 12.1343 20.2734 11.6733C20.1835 11.2122 20.0936 10.6359 20.0936 10.3798V9.90596L18.6548 9.82912C17.8584 9.7907 15.9957 9.68825 14.5056 9.62422C13.0284 9.54738 10.8317 9.43212 9.63705 9.38089C6.90089 9.24002 6.36136 9.38089 5.91176 10.303C5.69338 10.7768 5.6163 11.8398 5.32085 17.8844C5.141 21.6496 5.1667 21.5215 4.39595 22.5844C4.02342 23.0839 3.71511 23.4425 3.68942 23.3784C3.66373 23.3144 3.36828 20.1256 3.00859 16.2836C2.44338 10.0212 2.39199 9.27844 2.57183 9.02231C2.6746 8.85583 2.85444 8.72776 2.9829 8.72776C3.11136 8.72776 7.0165 8.4076 11.6795 8.0234C16.3297 7.63921 20.1578 7.31904 20.1707 7.31904C20.1835 7.31904 20.2734 7.01169 20.3633 6.6403C20.4404 6.28171 20.5946 5.79506 20.6973 5.56455C20.7873 5.33403 20.8643 5.0907 20.8643 5.01386C20.8643 4.89861 20.1835 4.84738 19.9009 4.94983Z" fill="#A1A1A1"/>
</svg>
