<svg width="39" height="40" viewBox="0 0 39 40" fill="none" xmlns="http://www.w3.org/2000/svg">
<path d="M28.4445 0.890411C27.8631 1.08611 27.8159 1.37213 27.8159 4.71407V7.99579L24.3588 8.04095C20.2731 8.10116 20.3674 8.056 20.3674 9.57643C20.3674 10.1485 20.4617 10.6453 20.5717 10.7807C20.7445 10.9764 21.3259 11.0216 24.2645 11.0517L27.7374 11.0969L27.8159 14.4388C27.9102 18.3979 27.8788 18.3227 29.4502 18.3227C31.0059 18.3227 30.9588 18.4582 30.9588 14.5592C30.9588 11.6388 30.9902 11.1872 31.2102 11.1119C31.3517 11.0668 32.9702 11.0216 34.8088 11.0216C38.6902 11.0216 38.5017 11.0969 38.5017 9.56138C38.5017 8.056 38.6274 8.08611 34.5102 8.04095L30.9588 7.99579V4.62374C30.9588 1.31192 30.9588 1.2517 30.6131 1.02589C30.2674 0.785034 28.9631 0.709766 28.4445 0.890411Z" fill="#A1A1A1"/>
<path d="M0 23.4411V39.7744L16.8614 39.7443L33.7071 39.6991L33.7543 30.4712L33.7857 21.2583H31.6643H29.5429V28.4088V35.5594H16.8929H4.24286V23.3658V11.1723H9.58572H14.9286V9.14001V7.10775H7.46429H0V23.4411Z" fill="#A1A1A1"/>
<path d="M15.4447 13.4906C15.0676 13.7014 14.6433 13.8218 14.4547 13.7766C13.9362 13.6412 13.2605 14.0024 12.9776 14.5895C12.8047 14.9358 12.679 15.6885 12.6162 16.682L12.5219 18.2175L11.909 18.4885C11.5005 18.6691 11.3276 18.8196 11.3747 18.9852C11.4062 19.1207 11.5633 19.7229 11.7047 20.31C11.9562 21.3487 12.0033 21.4089 12.4119 21.4089C12.7733 21.4089 12.9147 21.5293 13.1976 22.0412C13.9833 23.5164 15.2247 24.3143 16.7333 24.3143C18.3519 24.3293 19.8447 23.396 20.5047 21.996C20.7247 21.5444 20.8819 21.4089 21.259 21.3788C21.699 21.3336 21.7619 21.2433 22.2019 20.0691C22.7205 18.7143 22.7362 18.7895 21.919 18.3229C21.699 18.2024 21.6519 17.9465 21.6676 17.0885C21.6833 15.7788 21.2433 14.4842 20.6462 14.1229C20.1433 13.8067 17.4562 13.1293 16.6862 13.1293C16.3562 13.1293 15.8219 13.2949 15.4447 13.4906Z" fill="#A1A1A1"/>
<path d="M10.6541 26.452C9.97835 27.0542 9.00406 27.8068 8.50121 28.1079C7.19692 28.8606 6.91406 29.4477 6.91406 31.4348C6.91406 32.2477 6.96121 33.0757 7.00835 33.2563L7.10263 33.6025H16.8298C25.9598 33.6025 26.5726 33.5875 26.6826 33.3316C26.7298 33.1961 26.7926 32.3681 26.7926 31.495C26.7926 29.4176 26.5883 29.0262 25.0326 28.0176C24.3883 27.5961 23.3826 26.8283 22.8012 26.2864C22.2041 25.7595 21.6698 25.323 21.6069 25.323C21.5441 25.323 21.2926 25.4585 21.0569 25.624C20.3341 26.1208 18.5269 26.9187 17.7098 27.1144C17.2855 27.2047 16.6883 27.2499 16.3741 27.2047C15.5883 27.0843 13.9383 26.4219 12.8855 25.8197C12.4141 25.5488 11.9898 25.323 11.9426 25.323C11.8955 25.338 11.3141 25.8348 10.6541 26.452Z" fill="#A1A1A1"/>
</svg>
